<mxfile host="65bd71144e">
    <diagram id="Bi6ln6bl1m9O49LgASUx" name="Page-1">
        <mxGraphModel dx="902" dy="403" grid="1" gridSize="10" guides="1" tooltips="1" connect="1" arrows="1" fold="1" page="1" pageScale="1" pageWidth="850" pageHeight="1100" math="0" shadow="0">
            <root>
                <mxCell id="0"/>
                <mxCell id="1" parent="0"/>
                <mxCell id="3" value="MVP 1" style="shape=display;whiteSpace=wrap;html=1;" parent="1" vertex="1">
                    <mxGeometry x="60" y="30" width="80" height="40" as="geometry"/>
                </mxCell>
                <mxCell id="4" value="Home Page&lt;br&gt;(main)" style="shape=document;whiteSpace=wrap;html=1;boundedLbl=1;" parent="1" vertex="1">
                    <mxGeometry x="40" y="80" width="120" height="50" as="geometry"/>
                </mxCell>
                <mxCell id="8" value="MVP 2" style="shape=display;whiteSpace=wrap;html=1;" parent="1" vertex="1">
                    <mxGeometry x="320" y="30" width="80" height="40" as="geometry"/>
                </mxCell>
                <mxCell id="10" value="MVP 3" style="shape=display;whiteSpace=wrap;html=1;" parent="1" vertex="1">
                    <mxGeometry x="530" y="30" width="80" height="40" as="geometry"/>
                </mxCell>
                <mxCell id="11" value="Home Page&lt;br&gt;(main)" style="shape=document;whiteSpace=wrap;html=1;boundedLbl=1;" parent="1" vertex="1">
                    <mxGeometry x="300" y="80" width="120" height="50" as="geometry"/>
                </mxCell>
                <mxCell id="12" value="Home Page&lt;br&gt;(main)" style="shape=document;whiteSpace=wrap;html=1;boundedLbl=1;" parent="1" vertex="1">
                    <mxGeometry x="520" y="80" width="120" height="50" as="geometry"/>
                </mxCell>
                <mxCell id="15" value="Create new component" style="shape=document;whiteSpace=wrap;html=1;boundedLbl=1;" parent="1" vertex="1">
                    <mxGeometry x="40" y="220" width="120" height="50" as="geometry"/>
                </mxCell>
                <mxCell id="16" value="Selected Country&lt;br&gt;(new component)" style="rounded=0;whiteSpace=wrap;html=1;" parent="1" vertex="1">
                    <mxGeometry x="40" y="290" width="120" height="60" as="geometry"/>
                </mxCell>
                <mxCell id="17" value="Selected Country - change" style="rhombus;whiteSpace=wrap;html=1;" parent="1" vertex="1">
                    <mxGeometry x="60" y="370" width="80" height="80" as="geometry"/>
                </mxCell>
                <mxCell id="18" value="Run fetch API request" style="ellipse;whiteSpace=wrap;html=1;direction=south;" parent="1" vertex="1">
                    <mxGeometry x="65" y="460" width="70" height="50" as="geometry"/>
                </mxCell>
                <mxCell id="19" value="" style="endArrow=none;html=1;" parent="1" edge="1">
                    <mxGeometry width="50" height="50" relative="1" as="geometry">
                        <mxPoint x="260" y="710" as="sourcePoint"/>
                        <mxPoint x="260" y="30" as="targetPoint"/>
                        <Array as="points"/>
                    </mxGeometry>
                </mxCell>
                <mxCell id="20" value="" style="endArrow=none;html=1;" parent="1" edge="1">
                    <mxGeometry width="50" height="50" relative="1" as="geometry">
                        <mxPoint x="470" y="720" as="sourcePoint"/>
                        <mxPoint x="470" y="30" as="targetPoint"/>
                    </mxGeometry>
                </mxCell>
                <mxCell id="21" value="Store data from fetch in second state (reviews)" style="rounded=0;whiteSpace=wrap;html=1;" parent="1" vertex="1">
                    <mxGeometry x="40" y="530" width="120" height="60" as="geometry"/>
                </mxCell>
                <mxCell id="23" value="Review component on Home Page (main)" style="rounded=0;whiteSpace=wrap;html=1;" parent="1" vertex="1">
                    <mxGeometry x="40" y="140" width="120" height="60" as="geometry"/>
                </mxCell>
                <mxCell id="31" value="Display buttons for selected countries working" style="rounded=0;whiteSpace=wrap;html=1;" parent="1" vertex="1">
                    <mxGeometry x="300" y="200" width="120" height="55" as="geometry"/>
                </mxCell>
                <mxCell id="35" value="A page&amp;nbsp; with 2 /3 country listed with cmparisons" style="shape=document;whiteSpace=wrap;html=1;boundedLbl=1;" parent="1" vertex="1">
                    <mxGeometry x="520" y="320" width="120" height="60" as="geometry"/>
                </mxCell>
                <mxCell id="36" value="Configure a Button that changes the state of Selected Country" style="rounded=1;whiteSpace=wrap;html=1;" parent="1" vertex="1">
                    <mxGeometry x="40" y="600" width="120" height="60" as="geometry"/>
                </mxCell>
                <mxCell id="39" value="Filter reviews by star rating" style="shape=document;whiteSpace=wrap;html=1;boundedLbl=1;" parent="1" vertex="1">
                    <mxGeometry x="520" y="255" width="120" height="50" as="geometry"/>
                </mxCell>
                <mxCell id="40" value="Styling Features" style="rounded=0;whiteSpace=wrap;html=1;" parent="1" vertex="1">
                    <mxGeometry x="520" y="140" width="120" height="40" as="geometry"/>
                </mxCell>
                <mxCell id="41" value="Founders page (completed)" style="shape=document;whiteSpace=wrap;html=1;boundedLbl=1;" parent="1" vertex="1">
                    <mxGeometry x="520" y="200" width="120" height="50" as="geometry"/>
                </mxCell>
                <mxCell id="54" style="edgeStyle=none;html=1;exitX=0.5;exitY=0;exitDx=0;exitDy=0;" parent="1" source="47" edge="1">
                    <mxGeometry relative="1" as="geometry">
                        <mxPoint x="190" y="460" as="targetPoint"/>
                    </mxGeometry>
                </mxCell>
                <mxCell id="47" value="Error Checking" style="shape=step;perimeter=stepPerimeter;whiteSpace=wrap;html=1;fixedSize=1;" parent="1" vertex="1">
                    <mxGeometry x="140" y="430" width="100" height="40" as="geometry"/>
                </mxCell>
                <mxCell id="56" value="Reviews for each selected Country" style="shape=document;whiteSpace=wrap;html=1;boundedLbl=1;" parent="1" vertex="1">
                    <mxGeometry x="300" y="270" width="120" height="50" as="geometry"/>
                </mxCell>
                <mxCell id="57" value="" style="endArrow=none;html=1;" edge="1" parent="1">
                    <mxGeometry width="50" height="50" relative="1" as="geometry">
                        <mxPoint x="690" y="720" as="sourcePoint"/>
                        <mxPoint x="690" y="30" as="targetPoint"/>
                    </mxGeometry>
                </mxCell>
                <mxCell id="58" value="MVP 4" style="shape=display;whiteSpace=wrap;html=1;" vertex="1" parent="1">
                    <mxGeometry x="730" y="30" width="80" height="40" as="geometry"/>
                </mxCell>
                <mxCell id="59" value="Home Page&lt;br&gt;(main)" style="shape=document;whiteSpace=wrap;html=1;boundedLbl=1;" vertex="1" parent="1">
                    <mxGeometry x="710" y="80" width="120" height="50" as="geometry"/>
                </mxCell>
                <mxCell id="60" value="Additional features" style="rounded=0;whiteSpace=wrap;html=1;" vertex="1" parent="1">
                    <mxGeometry x="710" y="140" width="120" height="40" as="geometry"/>
                </mxCell>
                <mxCell id="61" value="All Features working" style="shape=document;whiteSpace=wrap;html=1;boundedLbl=1;" vertex="1" parent="1">
                    <mxGeometry x="710" y="202.5" width="120" height="50" as="geometry"/>
                </mxCell>
                <mxCell id="62" value="Styling Features" style="rounded=0;whiteSpace=wrap;html=1;" vertex="1" parent="1">
                    <mxGeometry x="300" y="140" width="120" height="40" as="geometry"/>
                </mxCell>
            </root>
        </mxGraphModel>
    </diagram>
</mxfile>